<?xml version="1.0" encoding="UTF-8" standalone="no"?>
<!-- Created with Inkscape (http://www.inkscape.org/) -->

<svg
   xmlns:dc="http://purl.org/dc/elements/1.1/"
   xmlns:cc="http://creativecommons.org/ns#"
   xmlns:rdf="http://www.w3.org/1999/02/22-rdf-syntax-ns#"
   xmlns:svg="http://www.w3.org/2000/svg"
   xmlns="http://www.w3.org/2000/svg"
   version="1.1"
   width="456.90625"
   height="395.6875"
   id="svg2">
  <defs
     id="defs4" />
  <metadata
     id="metadata7">
    <rdf:RDF>
      <cc:Work
         rdf:about="">
        <dc:format>image/svg+xml</dc:format>
        <dc:type
           rdf:resource="http://purl.org/dc/dcmitype/StillImage" />
        <dc:title></dc:title>
      </cc:Work>
    </rdf:RDF>
  </metadata>
  <g
     transform="translate(-136.89149,-128.82949)"
     id="layer1">
    <path
       d="m 365.32899,128.82949 -228.4375,395.6875 456.90625,0 -228.46875,-395.6875 z m 0,149.78125 c 4.73195,0 9.38639,0.28921 13.96875,0.84375 l -40.3125,69.90625 -20.125,34.84375 -39.03125,-67.59375 c 21.07542,-23.35182 51.56696,-38 85.5,-38 z m 25.875,2.90625 c 36.43702,8.35529 66.2501,34.00851 80.40625,67.84375 l -79.90625,0 -39.65625,0 39.15625,-67.84375 z m -119,44.53125 59.65625,103.34375 -76.0625,0 c -3.64427,-11.21579 -5.625,-23.19406 -5.625,-35.625 0,-25.3131 8.18816,-48.71218 22.03125,-67.71875 z m 127.78125,34.625 75.6875,0 c 3.13913,10.481 4.8125,21.59118 4.8125,33.09375 0,25.40047 -8.19484,48.86458 -22.125,67.90625 l -58.375,-101 z m 13.125,45.34375 37.59375,65.0625 c -21.06938,23.24396 -51.53195,37.84375 -85.375,37.84375 -3.80596,0 -7.57,-0.2017 -11.28125,-0.5625 l 59.0625,-102.34375 z m -152.9375,34.71875 78.21875,0 0.25,0.375 0.65625,-0.375 40.75,0 -38,65.8125 c -36.65494,-7.53848 -66.96672,-32.46949 -81.875,-65.8125 z"
       id="path3336"
       style="fill:#000000" />
  </g>
</svg>
