<?xml version="1.0" encoding="UTF-8" standalone="no"?>
<!-- Created with Inkscape (http://www.inkscape.org/) -->

<svg
   xmlns:dc="http://purl.org/dc/elements/1.1/"
   xmlns:cc="http://creativecommons.org/ns#"
   xmlns:rdf="http://www.w3.org/1999/02/22-rdf-syntax-ns#"
   xmlns:svg="http://www.w3.org/2000/svg"
   xmlns="http://www.w3.org/2000/svg"
   version="1.1"
   width="744.09448"
   height="1052.3622"
   id="svg2">
  <defs
     id="defs4" />
  <g
     id="layer1">
    <path
       d="m 350,93.875 -336.4375,582.71875 672.875,0 L 350,93.875 z m 0,222.6875 c 6.69088,0 13.29441,0.42253 19.78125,1.1875 L 277.625,478.5 l 0.53125,0.28125 -2.59375,4.46875 -58.125,-101.53125 C 248.22669,342.07266 296.14394,316.5625 350,316.5625 z m 25.34375,1.90625 c 58.81696,8.94766 107.64084,48.60058 129.90625,102.1875 l -116.71875,0 -71.71875,0 58.53125,-102.1875 z M 214,386.25 l 93.71875,163.53125 -113.5625,0 c -7.96305,-19.69807 -12.375,-41.23357 -12.375,-63.8125 0,-37.27374 11.95728,-71.74542 32.21875,-99.71875 z m 178.46875,39.625 114.84375,0 c 7.04043,18.67727 10.90625,38.93058 10.90625,60.09375 0,37.93226 -12.36434,72.95444 -33.28125,101.1875 L 392.46875,425.875 z m 32.6875,67.5 56.34375,98.21875 c -30.82452,38.84483 -78.28071,63.75 -131.5,63.75 -5.80655,0 -11.53246,-0.32797 -17.1875,-0.90625 L 425.15625,493.375 z m -228.78125,61.65625 115.125,0 72.28125,0 L 327.1875,653.75 C 268.6405,645.74687 219.65679,607.46343 196.375,555.03125 z"
       id="path3098"
       style="fill:#ffffff" />
  </g>
</svg>
